# xmcd
# Track frame offsets:
# 200
# 13407
# 28247
# 43095
# 59827
# 70357
# 81255
# 94940
# 105047
# 118205
#
# Disc length: 1733 seconds
# Revision: 0
# Processed by: cddbd v1.4PL0 Copyright (c) Steve Scherf et al.
# Submitted via: VisiTrax 2.9.5.180 - For more info visit www.synapsa.com
#
DISCID=8f06c30a
DTITLE=Darrell McCall - All she did was fall in love
DYEAR=1900
DGENRE=
TTITLE0=A long time ago
TTITLE1=Let me be the first to go
TTITLE2=All she did was fall in love
TTITLE3=Christmas in cell # 9
TTITLE4=Be a good girl
TTITLE5=Gonna make a change
TTITLE6=Coco driel
TTITLE7=Cherie
TTITLE8=The man I used to be
TTITLE9=Lonesome shade of blue
EXTD=
EXTT0=
EXTT1=
EXTT2=
EXTT3=
EXTT4=
EXTT5=
EXTT6=
EXTT7=
EXTT8=
EXTT9=
PLAYORDER=
